<?xml version="1.0" encoding="UTF-8" standalone="no"?>
<!-- Created with Inkscape (http://www.inkscape.org/) -->

<svg
   width="210mm"
   height="297mm"
   viewBox="0 0 210 297"
   version="1.1"
   id="svg1"
   inkscape:version="1.4 (86a8ad7, 2024-10-11)"
   sodipodi:docname="logo.svg"
   xmlns:inkscape="http://www.inkscape.org/namespaces/inkscape"
   xmlns:sodipodi="http://sodipodi.sourceforge.net/DTD/sodipodi-0.dtd"
   xmlns="http://www.w3.org/2000/svg"
   xmlns:svg="http://www.w3.org/2000/svg">
  <sodipodi:namedview
     id="namedview1"
     pagecolor="#ffffff"
     bordercolor="#666666"
     borderopacity="1.0"
     inkscape:showpageshadow="2"
     inkscape:pageopacity="0.0"
     inkscape:pagecheckerboard="0"
     inkscape:deskcolor="#d1d1d1"
     inkscape:document-units="mm"
     inkscape:zoom="0.63874158"
     inkscape:cx="373.39044"
     inkscape:cy="545.60406"
     inkscape:window-width="1280"
     inkscape:window-height="961"
     inkscape:window-x="-8"
     inkscape:window-y="-8"
     inkscape:window-maximized="1"
     inkscape:current-layer="layer1" />
  <defs
     id="defs1">
    <rect
       x="57.926399"
       y="237.96791"
       width="687.24146"
       height="309.98452"
       id="rect1" />
  </defs>
  <g
     inkscape:label="Layer 1"
     inkscape:groupmode="layer"
     id="layer1">
    <path
       d="m 127.48942,277.32847 -4.35717,0.11403 -14.80647,-16.71874 -2.92,2.56 v 11.08 h -3.6 v -28.56 h 3.6 v 14.08 c 0.8,-0.90667 1.61333,-1.81333 2.44,-2.72 l 2.48,-2.72 7.72,-8.64 h 4.2 l -11.32,12.44 z m 19.19634,-31.52471 -10.2,28.56 h -3.6 l -10.2,-28.56 h 3.76 l 6.44,18.32 c 0.42667,1.17333 0.77333,2.28 1.04,3.32 0.29333,1.01333 0.54667,1.98667 0.76,2.92 0.18667,-0.93333 0.42667,-1.92 0.72,-2.96 0.29333,-1.04 0.65333,-2.16 1.08,-3.36 l 6.4,-18.24 z m 20.19998,28.56 -3.44,-8.84 h -11.32 l -3.4,8.84 h -3.64 l 11.16,-28.68 h 3.24 l 11.12,28.68 z m -4.52,-12.04 -3.2,-8.64 c -0.08,-0.21333 -0.21333,-0.6 -0.4,-1.16 -0.18667,-0.56 -0.37333,-1.13333 -0.56,-1.72 -0.16,-0.61333 -0.29333,-1.08 -0.4,-1.4 -0.21333,0.82667 -0.44,1.64 -0.68,2.44 -0.21333,0.77333 -0.4,1.38667 -0.56,1.84 l -3.24,8.64 z m -86.471209,60.64499 v -19.375 h -12.34375 v -3.4375 h 28.28125 v 3.4375 h -12.34375 v 19.375 h 15.3125 v 3.4375 h -34.0625 v -3.4375 z M 114.01953,327.5 c 5.3125,-0.83333 8.28125,-3.54167 8.90625,-8.125 h -5.78125 v -2.5 h 5.9375 v -4.0625 h 2.96875 c 0.83333,0.10417 0.88542,0.41667 0.15625,0.9375 v 3.125 h 7.65625 l -0.46875,9.21875 c -0.10417,2.60417 -1.35417,3.90625 -3.75,3.90625 h -3.125 l -0.625,-2.5 h 2.65625 c 1.25,0 1.92708,-0.57292 2.03125,-1.71875 l 0.3125,-6.40625 h -4.84375 c -0.41667,5.9375 -4.0625,9.73958 -10.9375,11.40625 z m 14.0625,-19.6875 c 2.08333,1.5625 4.73958,2.76042 7.96875,3.59375 l -0.9375,3.4375 c -3.75,-1.35417 -6.77083,-2.96875 -9.0625,-4.84375 -2.39583,2.1875 -5.15625,3.95833 -8.28125,5.3125 l -1.40625,-2.96875 c 2.60417,-0.9375 5.05208,-2.34375 7.34375,-4.21875 -1.5625,-1.5625 -2.86458,-3.02083 -3.90625,-4.375 -0.83333,1.14583 -1.77083,2.23958 -2.8125,3.28125 l -1.875,-2.34375 c 2.60417,-2.70833 4.58333,-6.09375 5.9375,-10.15625 l 2.96875,1.09375 c 0.41667,0.41667 0.26042,0.67708 -0.46875,0.78125 l -1.09375,2.34375 h 12.8125 v 2.5 h -3.28125 c -0.83333,2.29167 -2.13542,4.47917 -3.90625,6.5625 z m -6.5625,-6.5625 c 1.25,2.1875 2.70833,3.85417 4.375,5 1.35417,-1.66667 2.39583,-3.33333 3.125,-5 z m -13.59375,15.625 c -1.5625,3.02083 -3.4375,5.78125 -5.625,8.28125 l -2.343749,-2.5 c 3.958329,-3.95833 6.510419,-7.91667 7.656249,-11.875 h -7.03125 v -2.5 h 13.75 l 0.46875,-0.9375 2.65625,1.71875 c 0.41667,0.41667 0.26042,0.67708 -0.46875,0.78125 l -3.59375,7.8125 -2.1875,-2.5 2.1875,-4.375 h -2.8125 v 17.5 c 0,1.77083 -0.78125,2.65625 -2.34375,2.65625 h -2.96875 l -0.625,-2.96875 h 2.8125 c 0.3125,0 0.46875,-0.15625 0.46875,-0.46875 z m 2.65625,-12.65625 1.71875,1.25 -2.03125,2.5 c -1.875,-1.5625 -4.11458,-3.17708 -6.71875,-4.84375 l 1.71875,-1.875 c 1.14583,0.41667 2.23958,0.98958 3.28125,1.71875 l 3.59375,-3.75 h -10.3125 v -2.5 h 11.5625 l 0.78125,-0.78125 2.5,1.875 c 0.41667,0.41667 0.26042,0.67708 -0.46875,0.78125 z m 30,23.59375 c 2.39583,-3.125 3.59375,-6.71875 3.59375,-10.78125 v -17.8125 h 12.8125 v -4.375 h 3.4375 c 1.04167,0.20833 1.09375,0.625 0.15625,1.25 v 3.125 h 13.90625 v 2.96875 h -27.1875 v 15 c 0,5.10417 -1.35417,9.47917 -4.0625,13.125 z m 27.8125,-2.1875 v -6.71875 h -14.53125 v 6.71875 z m -7.5,-21.71875 c 0.83333,0.10417 0.88542,0.41667 0.15625,0.9375 v 3.28125 h 12.5 v 2.96875 h -12.5 v 4.84375 h 10.46875 v 14.375 h -3.125 v -1.71875 h -14.53125 v 2.03125 h -3.125 v -14.6875 h 7.1875 v -12.03125 z"
       id="text1"
       style="font-size:40px;line-height:1.25;letter-spacing:0px;word-spacing:0px;white-space:pre;fill:#6c5d53"
       transform="matrix(1.7677513,0,0,1.8163439,-102.39838,-346.06405)"
       aria-label="　KVA&#10;工務店"
       sodipodi:nodetypes="cccccccccscccccccccccccsccccccccccccccsccccccccccccccccccccccccccccccsccscccccccccccccccccccccccccccccccccccccccccssccssccccccccccccccccscccccccccsccccccccccccccccccccccccc" />
    <rect
       style="fill:#6c5d53;fill-opacity:0.9999994;stroke-width:0.264583"
       id="rect2"
       width="75.542336"
       height="5.224678"
       x="47.635986"
       y="157.19873" />
    <rect
       style="fill:#6c5d53;fill-opacity:0.999999;stroke-width:0.264583"
       id="rect3"
       width="5.79916"
       height="74.814613"
       x="47.635986"
       y="87.60878" />
    <path
       id="rect4"
       style="fill:#6c5d53;fill-opacity:0.999999;stroke-width:0.266532"
       inkscape:transform-center-x="2.4270532"
       inkscape:transform-center-y="2.1147778"
       d="M 17.963175,111.56458 93.787557,45.856688 98.24667,52.501212 23.653093,118.07712 Z"
       sodipodi:nodetypes="ccccc" />
    <rect
       style="fill:#6c5d53;fill-opacity:0.999999;stroke-width:0.264583"
       id="rect5"
       width="73.936653"
       height="8.4582615"
       x="102.56632"
       y="-19.907118"
       inkscape:transform-center-x="-29.294329"
       inkscape:transform-center-y="22.382918"
       transform="rotate(37.060477)"
       inkscape:export-filename="logo_kva.svg"
       inkscape:export-xdpi="96"
       inkscape:export-ydpi="96" />
  </g>
</svg>
